<?xml version="1.0" standalone="no"?>
<!DOCTYPE svg PUBLIC "-//W3C//DTD SVG 20010904//EN"
 "http://www.w3.org/TR/2001/REC-SVG-20010904/DTD/svg10.dtd">
<svg version="1.0" xmlns="http://www.w3.org/2000/svg"
 width="1280.000000pt" height="640.000000pt" viewBox="0 0 1280.000000 640.000000"
 preserveAspectRatio="xMidYMid meet">

<g transform="translate(0.000000,640.000000) scale(0.100000,-0.100000)"
fill="#000000" stroke="none">
<path d="M1440 4520 c0 -5 -22 -10 -50 -10 l-50 0 0 -520 0 -520 50 0 50 0 0
-865 0 -865 4240 0 4240 0 0 41 c0 37 5 46 45 82 66 57 95 120 95 204 0 85
-22 135 -90 207 l-50 53 0 159 1 159 44 34 c25 18 45 37 45 41 0 5 -20 26 -45
48 l-45 40 0 861 0 861 -4240 0 c-2820 0 -4240 -3 -4240 -10z"/>
</g>
</svg>
