<svg id="svg" version="1.1" width="1000" height="500" xmlns="http://www.w3.org/2000/svg" xmlns:xlink="http://www.w3.org/1999/xlink" style="display: block;"><g id="svgg"><path id="path1" d="" stroke="none" fill="#400000" fill-rule="evenodd"></path><path id="path2" d="" stroke="none" fill="#550000" fill-rule="evenodd"></path><path id="path3" d="M254.183 128.600 C 254.183 138.060,254.236 141.873,254.300 137.073 C 254.364 132.273,254.363 124.533,254.299 119.873 C 254.236 115.213,254.183 119.140,254.183 128.600 " stroke="none" fill="#6d0000" fill-rule="evenodd"></path><path id="path4" d="" stroke="none" fill="#800000" fill-rule="evenodd"></path><path id="path5" d="M215.334 63.600 C 215.334 65.250,215.405 65.925,215.491 65.100 C 215.578 64.275,215.578 62.925,215.491 62.100 C 215.405 61.275,215.334 61.950,215.334 63.600 M106.961 122.400 C 106.961 125.810,107.022 127.205,107.097 125.500 C 107.172 123.795,107.172 121.005,107.097 119.300 C 107.022 117.595,106.961 118.990,106.961 122.400 M106.798 138.681 C 106.689 141.806,106.740 144.222,106.912 144.049 C 107.084 143.877,107.173 141.320,107.111 138.368 L 106.997 133.000 106.798 138.681 " stroke="none" fill="#890000" fill-rule="evenodd"></path><path id="path6" d="M110.541 58.789 C 104.505 59.714,101.963 69.079,106.844 72.408 C 107.745 73.022,115.668 80.979,116.004 81.607 C 118.171 85.656,111.199 87.756,107.855 84.061 L 107.112 83.240 104.956 84.868 C 102.380 86.813,102.392 86.739,104.376 88.531 C 110.827 94.359,121.275 91.539,121.917 83.796 C 122.230 80.025,121.442 78.694,115.366 72.723 C 109.591 67.047,108.987 65.955,110.889 64.623 C 112.146 63.742,113.263 63.847,114.968 65.004 L 116.447 66.008 118.424 64.341 C 120.737 62.390,120.730 62.417,119.282 61.166 C 116.747 58.977,114.069 58.248,110.541 58.789 M135.126 58.780 C 131.959 59.393,129.153 62.546,128.884 65.794 C 128.625 68.912,129.703 70.581,135.848 76.582 C 141.861 82.454,142.176 83.107,139.918 85.007 C 138.089 86.547,134.967 86.307,133.083 84.481 L 131.792 83.229 130.396 84.308 C 127.216 86.766,127.273 86.623,128.823 88.237 C 135.045 94.714,146.800 91.292,146.800 83.003 C 146.800 80.019,145.386 77.909,139.632 72.303 C 133.770 66.592,133.366 65.782,135.810 64.622 C 137.348 63.892,138.416 64.054,139.947 65.250 C 140.997 66.069,141.076 66.043,143.518 64.066 L 145.235 62.675 143.954 61.353 C 141.760 59.089,138.476 58.132,135.126 58.780 M174.983 58.772 C 167.153 60.029,166.117 68.029,172.960 74.394 C 178.958 79.973,180.400 81.584,180.394 82.701 C 180.374 86.331,174.721 87.227,171.850 84.056 L 171.102 83.229 168.961 84.902 C 166.496 86.827,166.540 87.167,169.558 89.489 C 176.207 94.604,185.800 90.789,185.800 83.031 C 185.800 79.019,185.617 78.732,178.912 72.251 C 174.967 68.437,174.000 67.285,174.000 66.400 C 174.000 64.167,176.940 63.466,179.224 65.154 C 180.604 66.175,180.286 66.300,183.373 63.518 L 184.573 62.436 183.624 61.426 C 181.609 59.281,178.247 58.248,174.983 58.772 M41.600 75.200 L 41.600 91.600 44.400 91.600 L 47.200 91.600 47.200 86.200 L 47.200 80.800 48.787 80.800 C 50.254 80.800,50.503 80.974,52.085 83.100 C 53.026 84.365,53.902 85.490,54.032 85.600 C 54.162 85.710,55.213 87.105,56.366 88.700 L 58.464 91.600 61.665 91.600 L 64.867 91.600 64.020 90.500 C 63.554 89.895,62.876 88.950,62.514 88.400 C 62.151 87.850,61.459 86.950,60.976 86.400 C 60.494 85.850,59.264 84.192,58.245 82.716 L 56.391 80.033 57.295 79.565 C 62.995 76.615,64.182 66.565,59.382 61.895 C 56.660 59.246,55.172 58.848,47.900 58.822 L 41.600 58.800 41.600 75.200 M72.000 70.731 C 72.000 83.871,72.122 84.723,74.410 87.612 C 78.392 92.641,88.190 93.066,93.352 88.433 C 96.160 85.913,96.400 84.539,96.400 70.970 L 96.400 58.763 93.700 58.882 L 91.000 59.000 90.800 71.059 C 90.579 84.396,90.655 84.027,87.828 85.489 C 86.246 86.307,81.405 86.015,79.870 85.009 C 77.867 83.696,77.813 83.360,77.600 70.800 L 77.400 59.000 74.700 58.882 L 72.000 58.763 72.000 70.731 M154.000 75.200 L 154.000 91.600 156.800 91.600 L 159.600 91.600 159.600 75.200 L 159.600 58.800 156.800 58.800 L 154.000 58.800 154.000 75.200 M202.966 59.560 C 193.029 63.208,187.944 76.657,193.864 83.631 C 194.159 83.979,194.400 84.430,194.400 84.633 C 194.400 85.428,198.974 89.293,201.128 90.318 C 204.541 91.943,211.971 91.926,215.100 90.287 L 217.200 89.187 217.200 85.317 L 217.200 81.448 215.969 82.707 C 211.595 87.181,204.283 87.162,200.101 82.667 C 192.012 73.973,201.979 60.511,212.736 65.600 C 214.131 66.260,215.301 66.800,215.336 66.801 C 215.371 66.801,215.342 65.389,215.271 63.661 L 215.143 60.521 213.671 59.795 C 211.476 58.711,205.627 58.583,202.966 59.560 M224.400 75.200 L 224.400 91.600 227.200 91.600 L 230.000 91.600 230.000 84.600 L 230.000 77.600 236.200 77.600 L 242.400 77.600 242.400 84.600 L 242.400 91.600 245.200 91.600 L 248.000 91.600 248.000 75.182 L 248.000 58.763 245.300 58.882 L 242.600 59.000 242.491 65.900 L 242.381 72.800 236.191 72.800 L 230.000 72.800 230.000 65.800 L 230.000 58.800 227.200 58.800 L 224.400 58.800 224.400 75.200 M55.647 65.553 C 57.120 67.026,57.200 67.235,57.200 69.606 C 57.200 74.216,55.084 75.977,49.900 75.684 L 47.200 75.532 47.200 69.766 L 47.200 64.000 50.647 64.000 L 54.094 64.000 55.647 65.553 M142.541 111.500 C 142.172 112.325,141.651 113.540,141.382 114.200 C 141.113 114.860,140.053 117.462,139.026 119.982 C 138.000 122.502,136.922 125.112,136.630 125.782 C 134.778 130.044,133.563 132.948,132.606 135.400 C 131.438 138.391,129.800 142.179,129.208 143.257 C 128.675 144.227,129.072 144.400,131.834 144.400 C 134.548 144.400,135.600 144.148,135.600 143.497 C 135.600 143.268,136.095 141.759,136.700 140.144 L 137.800 137.209 143.292 137.204 L 148.784 137.200 149.549 138.700 C 149.970 139.525,150.297 140.290,150.276 140.400 C 150.255 140.510,150.589 141.460,151.019 142.512 L 151.800 144.424 154.600 144.312 L 157.400 144.200 157.270 143.005 C 157.198 142.347,157.001 141.627,156.831 141.405 C 156.661 141.182,155.839 139.291,155.004 137.203 C 154.169 135.114,153.341 133.134,153.164 132.803 C 152.987 132.471,152.365 130.953,151.780 129.428 C 151.195 127.904,150.565 126.374,150.378 126.028 C 149.981 125.294,149.669 124.555,146.433 116.685 C 145.095 113.431,144.000 110.596,144.000 110.385 C 144.000 109.475,143.158 110.118,142.541 111.500 M178.800 127.200 L 178.800 144.400 181.600 144.400 L 184.400 144.400 184.406 134.100 L 184.413 123.800 185.634 125.200 C 186.864 126.610,192.486 132.820,193.600 133.999 C 193.930 134.348,195.550 136.153,197.200 138.009 C 198.850 139.866,200.965 142.195,201.900 143.185 C 202.835 144.176,203.600 145.124,203.600 145.293 C 203.600 145.462,203.870 145.600,204.200 145.600 C 204.724 145.600,204.800 143.444,204.800 128.600 L 204.800 111.600 202.000 111.600 L 199.200 111.600 199.200 121.624 L 199.200 131.647 196.261 128.524 C 194.645 126.806,192.459 124.410,191.404 123.200 C 190.349 121.990,187.733 119.110,185.591 116.800 C 183.449 114.490,181.208 112.015,180.612 111.300 C 180.016 110.585,179.365 110.000,179.164 110.000 C 178.951 110.000,178.800 117.119,178.800 127.200 M228.411 127.100 L 228.400 144.400 230.567 144.400 C 234.265 144.400,233.999 145.200,234.009 134.057 L 234.018 124.200 235.841 126.200 C 238.890 129.545,240.854 131.694,242.975 134.008 C 244.735 135.928,249.150 140.800,252.436 144.450 C 253.005 145.082,253.590 145.600,253.736 145.600 C 253.881 145.600,254.000 137.950,254.000 128.600 L 254.000 111.600 251.200 111.600 L 248.400 111.600 248.395 121.500 L 248.390 131.400 246.463 129.400 C 245.403 128.300,243.668 126.410,242.609 125.200 C 239.778 121.967,234.187 115.852,231.111 112.623 L 228.422 109.800 228.411 127.100 M302.966 111.398 C 298.914 112.310,296.998 114.745,297.005 118.972 C 297.010 122.498,297.390 123.077,303.442 128.800 C 309.609 134.630,310.132 135.866,307.255 137.821 C 305.222 139.203,303.639 139.088,301.427 137.400 C 299.197 135.698,299.508 135.694,297.367 137.448 C 294.884 139.483,295.549 140.897,300.111 143.276 C 307.882 147.327,317.586 138.975,313.760 131.529 C 313.288 130.610,304.302 121.481,303.198 120.799 C 302.986 120.668,302.703 120.014,302.569 119.346 C 302.078 116.892,304.698 116.017,307.619 117.659 L 309.147 118.518 310.274 117.466 C 310.893 116.888,311.744 116.168,312.165 115.865 C 314.821 113.956,307.466 110.384,302.966 111.398 M71.200 114.000 L 71.200 116.400 75.595 116.400 L 79.990 116.400 80.095 130.300 L 80.200 144.200 82.900 144.318 L 85.600 144.437 85.600 130.418 L 85.600 116.400 90.000 116.400 L 94.400 116.400 94.400 114.000 L 94.400 111.600 82.800 111.600 L 71.200 111.600 71.200 114.000 M101.600 128.019 L 101.600 144.438 104.100 144.319 L 106.600 144.200 106.711 138.678 L 106.823 133.155 108.494 133.278 C 109.947 133.384,110.342 133.635,111.517 135.200 C 112.261 136.190,113.214 137.406,113.635 137.903 C 114.056 138.400,114.400 138.899,114.400 139.012 C 114.400 139.125,115.316 140.383,116.437 141.809 L 118.473 144.400 121.437 144.400 C 125.108 144.400,125.199 144.859,120.213 138.208 L 116.027 132.624 117.527 131.659 C 124.070 127.453,123.464 115.951,116.516 112.449 C 115.002 111.686,114.163 111.600,108.216 111.600 L 101.600 111.600 101.600 128.019 M164.496 127.900 L 164.600 144.200 167.200 144.200 L 169.800 144.200 169.904 127.900 L 170.009 111.600 167.200 111.600 L 164.391 111.600 164.496 127.900 M214.096 127.900 L 214.200 144.200 216.800 144.200 L 219.400 144.200 219.504 127.900 L 219.609 111.600 216.800 111.600 L 213.991 111.600 214.096 127.900 M272.173 112.516 C 262.049 116.931,258.806 128.474,265.134 137.577 C 269.973 144.539,280.763 146.426,287.700 141.523 L 288.800 140.746 288.800 133.973 L 288.800 127.200 283.000 127.200 L 277.200 127.200 277.200 129.600 L 277.200 132.000 280.200 132.000 L 283.200 132.000 283.200 134.810 C 283.200 141.188,271.914 139.527,268.660 132.670 C 264.218 123.308,273.903 113.612,283.175 118.138 C 284.371 118.722,285.414 119.200,285.492 119.200 C 285.570 119.200,285.581 117.805,285.517 116.100 L 285.400 113.000 284.000 112.301 C 281.820 111.211,274.875 111.338,272.173 112.516 M113.753 116.955 C 120.262 119.674,117.176 128.400,109.706 128.400 L 106.800 128.400 106.800 122.400 L 106.800 116.400 109.613 116.400 C 111.160 116.400,113.023 116.650,113.753 116.955 M145.013 127.400 C 145.287 128.060,145.801 129.281,146.156 130.114 C 147.118 132.374,147.087 132.400,143.400 132.400 C 141.530 132.400,140.000 132.284,140.000 132.143 C 140.000 132.002,140.603 130.337,141.340 128.443 C 142.077 126.549,142.816 124.640,142.981 124.200 C 143.298 123.355,143.396 123.509,145.013 127.400 " stroke="none" fill="#990000" fill-rule="evenodd"></path><path id="path7" d="" stroke="none" fill="#aa0000" fill-rule="evenodd"></path><path id="path8" d="" stroke="none" fill="#bf0000" fill-rule="evenodd"></path><path id="path9" d="" stroke="none" fill="#ff0000" fill-rule="evenodd"></path></g></svg>